REM DIRINDEX 1\2\6,1\2\7,1\2\8,1\2\9,1\3\10,1\3\11,1\4\12,1\4\13,1\4\14,1\5\15,1\5\16,1\5\17
REM DIRNAME folder01,folder02,folder03,folder04,folder05,folder06,folder07,folder08,folder09,folder10,folder11,folder12,folder13,folder14,folder15,folder16,folder17
TITLE ""
FILE "1900_3_055 sec10_0901_0916.mp3" MP3
  TRACK 01 AUDIO
    TITLE "0:"
    INDEX 01 00:00:00
  TRACK 02 AUDIO
    TITLE "15:cjc020_7777"
    INDEX 01 00:00:21
  TRACK 03 AUDIO
    TITLE "0:"
    INDEX 01 00:01:69
  TRACK 04 AUDIO
    TITLE "17:cjc020_7778"
    INDEX 01 00:02:73
  TRACK 05 AUDIO
    TITLE "0:"
    INDEX 01 00:04:72
  TRACK 06 AUDIO
    TITLE "16:cjc020_7779"
    INDEX 01 00:05:03
  TRACK 07 AUDIO
    TITLE "0:"
    INDEX 01 00:06:26
  TRACK 08 AUDIO
    TITLE "17:cjc020_7780"
    INDEX 01 00:07:13
  TRACK 09 AUDIO
    TITLE "0:"
    INDEX 01 00:08:32
  TRACK 10 AUDIO
    TITLE "16:cjc020_7781"
    INDEX 01 00:08:38
  TRACK 11 AUDIO
    TITLE "0:"
    INDEX 01 00:09:51
  TRACK 12 AUDIO
    TITLE "17:cjc020_7782"
    INDEX 01 00:10:29
  TRACK 13 AUDIO
    TITLE "0:"
    INDEX 01 00:11:50
  TRACK 14 AUDIO
    TITLE "16:cjc020_7783"
    INDEX 01 00:11:52
  TRACK 15 AUDIO
    TITLE "0:"
    INDEX 01 00:13:00
  TRACK 16 AUDIO
    TITLE "17:cjc020_7784"
    INDEX 01 00:13:59
  TRACK 17 AUDIO
    TITLE "0:"
    INDEX 01 00:14:54
  TRACK 18 AUDIO
    TITLE "16:cjc020_7785"
    INDEX 01 00:14:66
  TRACK 19 AUDIO
    TITLE "0:"
    INDEX 01 00:15:66
  TRACK 20 AUDIO
    TITLE "17:cjc020_7786"
    INDEX 01 00:16:51
  TRACK 21 AUDIO
    TITLE "0:"
    INDEX 01 00:18:35
  TRACK 22 AUDIO
    TITLE "16:cjc020_7787"
    INDEX 01 00:18:44
  TRACK 23 AUDIO
    TITLE "0:"
    INDEX 01 00:19:54
  TRACK 24 AUDIO
    TITLE "17:cjc020_7788"
    INDEX 01 00:20:37
  TRACK 25 AUDIO
    TITLE "0:"
    INDEX 01 00:21:49
  TRACK 26 AUDIO
    TITLE "16:cjc020_7789"
    INDEX 01 00:21:60
  TRACK 27 AUDIO
    TITLE "0:"
    INDEX 01 00:23:04
  TRACK 28 AUDIO
    TITLE "17:cjc020_7790"
    INDEX 01 00:23:63
  TRACK 29 AUDIO
    TITLE "0:"
    INDEX 01 00:25:03
  TRACK 30 AUDIO
    TITLE "16:cjc020_7791"
    INDEX 01 00:25:05
  TRACK 31 AUDIO
    TITLE "0:"
    INDEX 01 00:26:26
  TRACK 32 AUDIO
    TITLE "17:cjc020_7792"
    INDEX 01 00:27:08
  TRACK 33 AUDIO
    TITLE "0:"
    INDEX 01 00:28:15
  TRACK 34 AUDIO
    TITLE "16:cjc020_7793"
    INDEX 01 00:28:21
  TRACK 35 AUDIO
    TITLE "0:"
    INDEX 01 00:29:42
  TRACK 36 AUDIO
    TITLE "17:cjc020_7794"
    INDEX 01 00:30:26
  TRACK 37 AUDIO
    TITLE "0:"
    INDEX 01 00:31:24
  TRACK 38 AUDIO
    TITLE "16:cjc020_7795"
    INDEX 01 00:31:29
  TRACK 39 AUDIO
    TITLE "0:"
    INDEX 01 00:32:21
  TRACK 40 AUDIO
    TITLE "17:cjc020_7796"
    INDEX 01 00:33:15
  TRACK 41 AUDIO
    TITLE "0:"
    INDEX 01 00:34:12
  TRACK 42 AUDIO
    TITLE "16:cjc020_7797"
    INDEX 01 00:34:16
  TRACK 43 AUDIO
    TITLE "0:"
    INDEX 01 00:35:15
  TRACK 44 AUDIO
    TITLE "17:cjc020_7798"
    INDEX 01 00:36:01
  TRACK 45 AUDIO
    TITLE "0:"
    INDEX 01 00:37:12
  TRACK 46 AUDIO
    TITLE "16:cjc020_7799"
    INDEX 01 00:37:18
  TRACK 47 AUDIO
    TITLE "0:"
    INDEX 01 00:38:22
  TRACK 48 AUDIO
    TITLE "17:cjc020_7800"
    INDEX 01 00:39:07
  TRACK 49 AUDIO
    TITLE "0:"
    INDEX 01 00:40:24
  TRACK 50 AUDIO
    TITLE "16:cjc020_7801"
    INDEX 01 00:40:30
  TRACK 51 AUDIO
    TITLE "0:"
    INDEX 01 00:41:26
  TRACK 52 AUDIO
    TITLE "17:cjc020_7802"
    INDEX 01 00:42:12
  TRACK 53 AUDIO
    TITLE "0:"
    INDEX 01 00:43:70
  TRACK 54 AUDIO
    TITLE "16:cjc020_7803"
    INDEX 01 00:44:03
  TRACK 55 AUDIO
    TITLE "0:"
    INDEX 01 00:45:14
  TRACK 56 AUDIO
    TITLE "17:cjc020_7804"
    INDEX 01 00:45:73
  TRACK 57 AUDIO
    TITLE "0:"
    INDEX 01 00:47:15
  TRACK 58 AUDIO
    TITLE "16:cjc020_7805"
    INDEX 01 00:47:30
  TRACK 59 AUDIO
    TITLE "0:"
    INDEX 01 00:48:46
  TRACK 60 AUDIO
    TITLE "17:cjc020_7806"
    INDEX 01 00:49:29
  TRACK 61 AUDIO
    TITLE "0:"
    INDEX 01 00:51:67
  TRACK 62 AUDIO
    TITLE "16:cjc020_7807"
    INDEX 01 00:51:69
  TRACK 63 AUDIO
    TITLE "0:"
    INDEX 01 00:53:19
  TRACK 64 AUDIO
    TITLE "17:cjc020_7808"
    INDEX 01 00:54:03
  TRACK 65 AUDIO
    TITLE "0:"
    INDEX 01 00:55:22
  TRACK 66 AUDIO
    TITLE "16:cjc020_7809"
    INDEX 01 00:55:26
  TRACK 67 AUDIO
    TITLE "0:"
    INDEX 01 00:56:51
